<?xml version="1.0" encoding="utf-8"?>
<!-- Generator: Adobe Illustrator 27.2.0, SVG Export Plug-In . SVG Version: 6.00 Build 0)  -->
<svg version="1.1" id="Livello_1" xmlns="http://www.w3.org/2000/svg" xmlns:xlink="http://www.w3.org/1999/xlink" x="0px" y="0px"
	 viewBox="0 0 45 35" style="enable-background:new 0 0 45 35;" xml:space="preserve">
<style type="text/css">
	.st0{fill-rule:evenodd;clip-rule:evenodd;fill:#B9539A;}
	.st1{opacity:0.4;fill:none;stroke:#FFFFFF;stroke-width:0.3;enable-background:new    ;}
</style>
<path class="st0" d="M7,25.3c0,0.6,0.5,0.9,1,1.2l0,0l0,0l0,0c0.1,0,0.1,0.1,0.2,0.1c2,1.3,4.2,2.4,6.6,3.1c0.4,0.1,0.6,0.1,0.8-0.3
	c0.4-0.6,0.8-1.3,1.2-2c0.2-0.3,0.1-0.5-0.2-0.6c-0.3-0.1-2.3-0.9-2.2-1.2c0.1-0.2,0.3-0.4,0.6-0.4c0.1,0,0.2,0.1,0.3,0.1
	c5.1,2.1,10.2,2.1,15.3,0c0.2-0.1,0.4-0.2,0.6-0.1c0.4,0.3,0.5,0.4,0,0.6c-0.6,0.3-1.2,0.6-1.8,0.8c-0.3,0.1-0.4,0.3-0.2,0.5
	c0.4,0.7,0.8,1.4,1.3,2.1c0.2,0.2,0.3,0.3,0.6,0.2c2.7-0.8,5.2-2.1,7.5-3.7c0.2-0.1,0.3-0.3,0.3-0.5c0.6-6.3-1-12.1-4.6-17.3
	c-0.1-0.2-0.3-0.3-0.5-0.4C31.9,7,29.9,6.4,27.9,6c-0.3-0.1-0.5,0-0.6,0.3c-0.1,0.4-0.3,1.1-0.7,1.2c-0.3,0.1-0.8,0-1.3-0.1
	c-1.8-0.2-3.7-0.2-5.5,0.1c-0.3,0-0.5,0-0.6-0.3c-0.3-0.7-0.5-1-0.8-1.1c-0.3-0.1-0.7,0-1.4,0.1c-1.6,0.4-3.1,0.9-4.7,1.5
	c-0.3,0.1-0.6,0.3-0.7,0.6C8,13.8,7.3,19.1,7,25.3L7,25.3z M30.2,21.5c1.6-1.5,1.3-4.6-1-5.4c-1.1-0.4-2-0.1-2.8,0.7
	c-1.1,1.1-1.2,3-0.3,4.2C27.1,22.5,28.9,22.7,30.2,21.5z M19.5,21.5c1.6-1.6,1.2-4.6-1-5.4c-1-0.4-2-0.1-2.7,0.7
	c-1.2,1.2-1.3,3.2-0.2,4.5C16.6,22.5,18.4,22.6,19.5,21.5z"/>
<path class="st1" d="M4,26.9c0.1,0.8,0.7,1.2,1.3,1.7l0,0l0,0l0,0l0,0c0.1,0,0.1,0.1,0.2,0.1c2.7,1.8,7.9,3.2,11,4.2
	c0.5,0.2,0.8,0.1,1-0.3l1.2-1.5c0.4-0.5,1.1-0.8,1.8-0.8c2,0.2,3.3,0.1,5.1,0c0.8-0.1,1.5,0.3,1.9,0.9l1,1.7
	c0.2,0.3,0.4,0.4,0.8,0.2c3.5-1.1,9.2-3,12.2-5.2c0.2-0.2,0.4-0.4,0.4-0.7c0.7-8.5-1.3-15.2-6-22.2c-0.2-0.3-0.4-0.5-0.7-0.6
	c-2.5-1.1-5.1-1.9-7.8-2.4c-0.5-0.1-0.7,0.1-0.8,0.4c-0.2,0.5-0.5,1.5-0.9,1.7C25.2,4.3,24.6,4,24,4c-2.4-0.2-0.9-0.2-3.3,0.1
	c-0.4,0.1-0.6,0-0.8-0.4c-0.4-0.9-0.6-1.4-1-1.5c-0.4-0.2-0.9-0.1-1.9,0.2l0,0c-2.1,0.5-4.1,1.2-6.1,2c-0.4,0.2-0.7,0.5-1,0.8
	C5.3,12.4,4.4,18.6,4,26.9L4,26.9z"/>
</svg>
