<?xml version="1.0" encoding="utf-8"?>
<!-- Generator: Adobe Illustrator 27.2.0, SVG Export Plug-In . SVG Version: 6.00 Build 0)  -->
<svg version="1.1" id="Livello_1" xmlns="http://www.w3.org/2000/svg" xmlns:xlink="http://www.w3.org/1999/xlink" x="0px" y="0px"
	 viewBox="0 0 45 35" style="enable-background:new 0 0 45 35;" xml:space="preserve">
<style type="text/css">
	.st0{opacity:0.4;fill:none;stroke:#FFFFFF;stroke-width:0.2547;enable-background:new    ;}
	.st1{fill:#D35098;}
	.st2{fill:#FFFFFF;stroke:#000000;stroke-miterlimit:10;}
</style>
<path class="st0" d="M32.7,5.6c2.4-0.1,3.9-1.2,4.9-2c0.1,1.3-0.1,3-0.5,3.5c0.9-0.1,1.7-0.5,2-0.7c0.1,1.9-1.6,4.6-3.4,6.2
	c0.5,6.7-4.5,16-14.4,17.4C12.2,31.3,5.5,26.8,2,21.7c4.3,2.6,10.4,2,10.8,1.6C6.9,18.6,7.2,6.3,11.4,3c2.3,4.8,7.3,6.8,9.4,7.1
	C22.6,2.8,30,3.5,32.7,5.6L32.7,5.6z"/>
<path class="st1" d="M36.2,8.6c-1,0.4-2.1,0.7-3.2,0.9c1.2-0.7,2-1.8,2.5-3.1c-1.1,0.6-2.3,1.1-3.5,1.4c-1-1.1-2.5-1.8-4.1-1.8
	c-3.1,0-5.6,2.5-5.6,5.6c0,0.4,0,0.9,0.1,1.3c-4.6-0.2-8.7-2.5-11.5-5.8c-0.5,0.8-0.8,1.8-0.8,2.8c0,1.9,1,3.6,2.5,4.6
	c-0.9,0-1.8-0.3-2.5-0.7c0,0,0,0,0,0.1c0,2.7,1.9,5,4.5,5.5c-0.5,0.1-1,0.2-1.5,0.2c-0.4,0-0.7,0-1-0.1c0.7,2.2,2.8,3.8,5.2,3.9
	c-1.9,1.5-4.3,2.4-6.9,2.4c-0.4,0-0.9,0-1.3-0.1c2.5,1.6,5.4,2.5,8.5,2.5c10.3,0,15.9-8.5,15.9-15.9c0-0.2,0-0.5,0-0.7
	C34.5,10.7,35.4,9.7,36.2,8.6L36.2,8.6z"/>
<path class="st2" d="M248,39"/>
</svg>
