<?xml version="1.0" encoding="utf-8"?>
<!-- Generator: Adobe Illustrator 23.1.1, SVG Export Plug-In . SVG Version: 6.00 Build 0)  -->
<svg version="1.1" id="Livello_1" xmlns="http://www.w3.org/2000/svg" xmlns:xlink="http://www.w3.org/1999/xlink" x="0px" y="0px"
	 viewBox="0 0 230 50" style="enable-background:new 0 0 230 50;" xml:space="preserve">
<style type="text/css">
	.st0{fill:url(#Fill-3_1_);}
	.st1{fill:url(#Fill-4_1_);}
	.st2{fill:url(#Fill-5_1_);}
	.st3{fill:url(#Fill-6_1_);}
	.st4{fill:url(#Fill-7_1_);}
	.st5{fill:url(#Fill-8_1_);}
</style>
<g id="Page-1">
	<g id="wordmark">
		<linearGradient id="Fill-3_1_" gradientUnits="userSpaceOnUse" x1="17.5673" y1="25.0325" x2="39.2876" y2="25.0325">
			<stop  offset="0" style="stop-color:#0A84FF"/>
			<stop  offset="0.9987" style="stop-color:#D834FF"/>
		</linearGradient>
		<path id="Fill-3" class="st0" d="M39.3,33.1l-2.7-2.7c-1,0.9-2,1.7-3.1,2.2c-1,0.6-2.3,0.8-3.7,0.8c-1.1,0-2.2-0.2-3.1-0.6
			c-1-0.5-1.8-1-2.5-1.8c-0.7-0.8-1.2-1.7-1.6-2.7c-0.4-1-0.6-2.1-0.6-3.3c0-1.2,0.2-2.3,0.6-3.3c0.4-1,0.9-1.9,1.6-2.7
			c0.7-0.7,1.5-1.4,2.5-1.8c1-0.5,2-0.6,3.1-0.6c1.4,0,2.6,0.3,3.6,0.8c1.1,0.6,2.1,1.3,3,2.1l2.7-3.1c-0.6-0.6-1.2-1-1.8-1.5
			c-0.6-0.5-1.3-0.8-2.1-1.2c-0.7-0.3-1.6-0.6-2.5-0.7c-0.9-0.2-1.9-0.3-3-0.3c-1.8,0-3.4,0.3-4.9,1c-1.5,0.6-2.8,1.5-3.9,2.6
			c-1.1,1.1-1.9,2.4-2.5,3.9c-0.6,1.5-0.9,3.1-0.9,4.8c0,1.7,0.3,3.3,0.9,4.8c0.6,1.5,1.5,2.8,2.5,3.9c1.1,1.1,2.3,1.9,3.8,2.6
			c1.5,0.6,3.1,0.9,4.8,0.9c1.1,0,2.1-0.1,3-0.3c0.9-0.2,1.8-0.5,2.5-0.8c0.8-0.4,1.5-0.8,2.1-1.3C38,34.3,38.7,33.7,39.3,33.1"/>
		<linearGradient id="Fill-4_1_" gradientUnits="userSpaceOnUse" x1="87.9228" y1="25.1136" x2="106.1366" y2="25.1136">
			<stop  offset="0" style="stop-color:#0A84FF"/>
			<stop  offset="0.9987" style="stop-color:#D834FF"/>
		</linearGradient>
		<path id="Fill-4" class="st1" d="M93,19.4c0-0.8,0.3-1.5,1-2c0.7-0.6,1.6-0.8,2.8-0.8c1.1,0,2.1,0.2,3.2,0.6c1,0.4,2.1,1,3.2,1.8
			l2.2-3.1c-1.2-1-2.5-1.7-3.9-2.2c-1.4-0.5-2.9-0.7-4.6-0.7c-1.2,0-2.2,0.2-3.2,0.5c-1,0.3-1.8,0.8-2.5,1.4
			c-0.7,0.6-1.3,1.3-1.7,2.2c-0.4,0.8-0.6,1.8-0.6,2.8c0,1.1,0.2,2,0.5,2.8c0.4,0.8,0.8,1.4,1.5,1.9c0.6,0.6,1.5,1,2.5,1.4
			c1,0.4,2.1,0.7,3.3,1c1.1,0.3,2,0.5,2.7,0.8c0.7,0.3,1.2,0.5,1.6,0.8c0.4,0.3,0.6,0.6,0.8,0.9c0.1,0.3,0.2,0.7,0.2,1.1
			c0,0.9-0.4,1.7-1.1,2.2c-0.7,0.6-1.8,0.8-3.1,0.8c-1.5,0-2.8-0.3-4-0.8c-1.2-0.5-2.3-1.3-3.5-2.3l-2.5,3c1.4,1.3,3,2.2,4.6,2.9
			c1.7,0.6,3.4,0.9,5.2,0.9c1.2,0,2.4-0.2,3.4-0.5s1.9-0.8,2.6-1.4c0.7-0.6,1.3-1.4,1.7-2.2c0.4-0.9,0.6-1.9,0.6-3
			c0-1-0.2-1.9-0.5-2.6c-0.3-0.7-0.8-1.4-1.4-1.9c-0.6-0.6-1.4-1-2.4-1.4c-0.9-0.4-2-0.7-3.3-1c-1.1-0.3-2-0.5-2.8-0.8
			c-0.7-0.3-1.3-0.5-1.7-0.8c-0.4-0.3-0.7-0.6-0.8-0.9C93,20.3,93,19.9,93,19.4"/>
		<linearGradient id="Fill-5_1_" gradientUnits="userSpaceOnUse" x1="119.9025" y1="24.8864" x2="143.0838" y2="24.8864">
			<stop  offset="0" style="stop-color:#0A84FF"/>
			<stop  offset="0.9987" style="stop-color:#D834FF"/>
		</linearGradient>
		<polyline id="Fill-5" class="st2" points="139,19.8 139,36.7 143.1,36.7 143.1,13.1 138.7,13.1 131.5,24.3 124.3,13.1 119.9,13.1 
			119.9,36.7 124,36.7 124,19.8 131.4,30.9 131.5,30.9 139,19.8 		"/>
		<linearGradient id="Fill-6_1_" gradientUnits="userSpaceOnUse" x1="157.2393" y1="24.9838" x2="181.9789" y2="24.9838">
			<stop  offset="0" style="stop-color:#0A84FF"/>
			<stop  offset="0.9987" style="stop-color:#D834FF"/>
		</linearGradient>
		<path id="Fill-6" class="st3" d="M177.6,25c0,1.1-0.2,2.2-0.6,3.3c-0.4,1-0.9,1.9-1.6,2.7c-0.7,0.7-1.5,1.4-2.5,1.8
			c-1,0.5-2,0.6-3.2,0.6s-2.2-0.2-3.2-0.7c-1-0.5-1.9-1.1-2.5-1.8c-0.7-0.8-1.3-1.7-1.7-2.7c-0.4-1-0.6-2.1-0.6-3.3
			c0-1.1,0.2-2.2,0.6-3.3c0.4-1,0.9-1.9,1.6-2.7c0.7-0.7,1.5-1.4,2.5-1.8c1-0.5,2-0.6,3.2-0.6s2.2,0.2,3.2,0.7
			c1,0.5,1.9,1.1,2.5,1.8c0.7,0.8,1.3,1.7,1.7,2.7C177.4,22.8,177.6,23.9,177.6,25z M182,25c0-1.7-0.3-3.2-0.9-4.7
			c-0.6-1.5-1.5-2.8-2.5-3.9s-2.4-2-3.9-2.6c-1.5-0.6-3.2-1-5-1c-1.8,0-3.5,0.3-5,1c-1.5,0.6-2.8,1.5-3.9,2.7
			c-1.1,1.1-1.9,2.4-2.6,3.9c-0.6,1.5-0.9,3.1-0.9,4.7c0,1.7,0.3,3.2,0.9,4.7c0.6,1.5,1.5,2.8,2.5,3.9c1.1,1.1,2.4,2,3.9,2.6
			c1.5,0.6,3.2,1,5,1c1.8,0,3.5-0.3,5-1c1.5-0.6,2.8-1.5,3.9-2.7c1.1-1.1,1.9-2.4,2.6-3.9C181.7,28.2,182,26.6,182,25z"/>
		<linearGradient id="Fill-7_1_" gradientUnits="userSpaceOnUse" x1="194.2189" y1="25.1136" x2="212.4327" y2="25.1136">
			<stop  offset="0" style="stop-color:#0A84FF"/>
			<stop  offset="0.9987" style="stop-color:#D834FF"/>
		</linearGradient>
		<path id="Fill-7" class="st4" d="M199.3,19.4c0-0.8,0.3-1.5,1-2s1.6-0.8,2.8-0.8c1.1,0,2.1,0.2,3.2,0.6s2.1,1,3.2,1.8l2.2-3.1
			c-1.2-1-2.5-1.7-3.9-2.2c-1.4-0.5-2.9-0.7-4.6-0.7c-1.2,0-2.2,0.2-3.2,0.5c-1,0.3-1.8,0.8-2.5,1.4c-0.7,0.6-1.2,1.3-1.7,2.2
			c-0.4,0.8-0.6,1.8-0.6,2.8c0,1.1,0.2,2,0.5,2.8c0.4,0.8,0.8,1.4,1.5,1.9c0.6,0.6,1.5,1,2.5,1.4c1,0.4,2.1,0.7,3.3,1
			c1.1,0.3,2,0.5,2.7,0.8c0.7,0.3,1.2,0.5,1.6,0.8c0.4,0.3,0.6,0.6,0.8,0.9c0.1,0.3,0.2,0.7,0.2,1.1c0,0.9-0.4,1.7-1.1,2.2
			c-0.7,0.6-1.8,0.8-3.1,0.8c-1.5,0-2.8-0.3-4-0.8c-1.2-0.5-2.3-1.3-3.5-2.3l-2.5,3c1.4,1.3,3,2.2,4.6,2.9c1.7,0.6,3.4,0.9,5.2,0.9
			c1.2,0,2.4-0.2,3.4-0.5s1.9-0.8,2.6-1.4c0.7-0.6,1.3-1.4,1.7-2.2c0.4-0.9,0.6-1.9,0.6-3c0-1-0.2-1.9-0.5-2.6
			c-0.3-0.7-0.8-1.4-1.4-1.9c-0.6-0.6-1.4-1-2.4-1.4c-0.9-0.4-2-0.7-3.3-1c-1.1-0.3-2-0.5-2.8-0.8c-0.7-0.3-1.3-0.5-1.7-0.8
			c-0.4-0.3-0.7-0.6-0.8-0.9C199.3,20.3,199.3,19.9,199.3,19.4"/>
		<linearGradient id="Fill-8_1_" gradientUnits="userSpaceOnUse" x1="45.7809" y1="25" x2="80.6827" y2="25">
			<stop  offset="0" style="stop-color:#0A84FF"/>
			<stop  offset="0.9987" style="stop-color:#D834FF"/>
		</linearGradient>
		<path id="Fill-8" class="st5" d="M67.5,17.9L56.2,29.1c-0.1-0.3-0.3-0.6-0.4-0.9c-0.4-1-0.6-2.1-0.6-3.2c0-1.1,0.2-2.2,0.6-3.2
			c0.4-1,0.9-1.9,1.6-2.7c0.7-0.7,1.5-1.3,2.5-1.8c1-0.4,2-0.6,3.2-0.6c1.2,0,2.2,0.2,3.2,0.7C66.8,17.4,67.1,17.6,67.5,17.9z
			 M66.5,32.7c-1,0.4-2,0.6-3.2,0.6c-1.2,0-2.2-0.2-3.2-0.7c-0.4-0.2-0.7-0.4-1-0.6l11.3-11.2c0.1,0.3,0.3,0.6,0.4,0.9
			c0.4,1,0.6,2.1,0.6,3.2c0,1.1-0.2,2.2-0.6,3.2c-0.4,1-0.9,1.9-1.6,2.7C68.3,31.7,67.5,32.3,66.5,32.7z M68.2,36.2
			c1.5-0.6,2.8-1.5,3.9-2.6c1.1-1.1,1.9-2.4,2.6-3.9c0.6-1.5,0.9-3.1,0.9-4.7s-0.3-3.2-0.9-4.7c-0.4-0.9-0.8-1.7-1.3-2.4l7.3-7.3
			l-2.9-2.9l-7.3,7.3c-0.6-0.5-1.4-0.8-2.1-1.2c-1.5-0.6-3.2-1-5-1c-1.8,0-3.5,0.3-5,1c-1.5,0.6-2.8,1.5-3.9,2.6s-1.9,2.4-2.6,3.9
			c-0.6,1.5-0.9,3.1-0.9,4.7s0.3,3.2,0.9,4.7c0.4,0.9,0.8,1.7,1.3,2.4l-7.3,7.3l2.9,2.9l7.3-7.3c0.6,0.5,1.4,0.8,2.1,1.2
			c1.5,0.6,3.2,1,5,1C65,37.2,66.7,36.9,68.2,36.2z"/>
	</g>
</g>
</svg>
