<?xml version="1.0" encoding="utf-8"?>
<!-- Generator: Adobe Illustrator 23.1.1, SVG Export Plug-In . SVG Version: 6.00 Build 0)  -->
<svg version="1.1" id="Livello_1" xmlns="http://www.w3.org/2000/svg" xmlns:xlink="http://www.w3.org/1999/xlink" x="0px" y="0px"
	 viewBox="0 0 230 50" style="enable-background:new 0 0 230 50;" xml:space="preserve">
<style type="text/css">
	.st0{fill-rule:evenodd;clip-rule:evenodd;fill:#9C9CA4;}
	.st1{fill:#9C9CA4;}
</style>
<g>
	<path class="st0" d="M80.4,46c6.1,0,11.5-2.6,15.3-6.8c-1.7-1.5-4.4-1.6-6.2-0.1l-0.4,0.3c-3.4,2.7-8.4,2.3-11.3-0.9
		c-1.6-1.8-4.3-2-6.1-0.4l-4.1,3.5C71.1,44.3,75.6,46,80.4,46z M87.1,36.1c3.2-2.6,7.8-2.5,10.9,0c1.9-3.1,2.9-6.7,2.9-10.6
		c0-4.3-1.3-8.3-3.6-11.6c-1.5-0.3-3,0.1-4.2,1.1l-0.3,0.3c-3.3,2.9-8.2,2.7-11.3-0.4c-1.7-1.7-4.4-1.8-6.1-0.1l-4.8,4.5l-2.6-2.8
		l4.8-4.5c3.3-3.1,8.4-3,11.5,0.2c1.6,1.7,4.3,1.8,6,0.2l0.3-0.3c1.1-0.9,2.3-1.6,3.6-1.9C90.5,7,85.7,5,80.4,5
		c-10.4,0-19,7.7-20.3,17.8c3.2-1.5,7.1-0.9,9.6,1.7c1.6,1.7,4.2,1.8,6.1,0.4l2.7-2.1c3.3-2.6,8.1-2.5,11.3,0.3l5.2,4.5l-2.5,2.9
		L87.3,26c-1.8-1.6-4.5-1.7-6.4-0.2l-2.7,2.1c-3.4,2.6-8.2,2.3-11.2-0.7c-1.7-1.8-4.6-1.8-6.4-0.1l-0.6,0.5
		c0.4,4.3,2.2,8.2,4.8,11.3l4.4-3.7c3.4-2.9,8.5-2.6,11.5,0.8c1.6,1.7,4.2,2,6,0.5L87.1,36.1z"/>
	<path class="st1" d="M115.7,30.3c0,4.3,3.4,7.1,8.7,7.1c5.3,0,9-2.7,9-7c0-3.4-1.9-5.1-5.7-6l-4-1c-2.2-0.6-3.3-1.6-3.3-3.1
		c0-2.1,1.5-3.3,4.2-3.3c2.6,0,4.1,1.4,4.2,3.7h4.1c-0.1-4.3-3.3-7-8.2-7c-5,0-8.5,2.6-8.5,6.8c0,3.3,1.9,5.3,5.9,6.3l4,0.9
		c2.3,0.6,3.1,1.5,3.1,3c0,2.1-1.8,3.3-4.8,3.3c-2.9,0-4.6-1.4-4.6-3.7H115.7z"/>
	<path class="st1" d="M148.8,37.4c5.6,0,9.4-2.7,10.5-7.6h-4.1c-0.7,2.6-2.9,4-6.3,4c-4.3,0-6.8-2.6-7.1-7.4l17.4,0v-1.6
		c0-6.7-4.2-11.1-10.6-11.1c-6.5,0-11,4.9-11,11.9C137.6,32.6,142.2,37.4,148.8,37.4z M148.6,17.3c3.8,0,6.3,2.5,6.3,6.2h-13
		C142.4,19.5,144.8,17.3,148.6,17.3z"/>
	<path class="st1" d="M167.1,14.4c1.6,0,2.9-1.3,2.9-2.9c0-1.6-1.3-2.9-2.9-2.9c-1.6,0-2.9,1.2-2.9,2.9
		C164.2,13.1,165.5,14.4,167.1,14.4z M165,42.3h4.3V19.8H165V42.3z"/>
</g>
</svg>
