<?xml version="1.0" encoding="utf-8"?>
<!-- Generator: Adobe Illustrator 23.1.1, SVG Export Plug-In . SVG Version: 6.00 Build 0)  -->
<svg version="1.1" id="_x2014_ÎÓÈ_x5F_1" xmlns="http://www.w3.org/2000/svg" xmlns:xlink="http://www.w3.org/1999/xlink"
	 x="0px" y="0px" viewBox="0 0 4263.3 1541.6" style="enable-background:new 0 0 4263.3 1541.6;" xml:space="preserve">
<style type="text/css">
	.st0{fill:url(#SVGID_1_);}
	.st1{fill:url(#SVGID_2_);}
	.st2{fill:url(#SVGID_3_);}
	.st3{fill:url(#SVGID_4_);}
	.st4{fill:url(#SVGID_5_);}
	.st5{fill:url(#SVGID_6_);}
	.st6{fill:url(#SVGID_7_);}
	.st7{fill:url(#SVGID_8_);}
	.st8{fill:url(#SVGID_9_);}
	.st9{fill:url(#SVGID_10_);}
	.st10{fill:url(#SVGID_11_);}
	.st11{fill:url(#SVGID_12_);}
	.st12{fill:url(#SVGID_13_);}
	.st13{fill:url(#SVGID_14_);}
	.st14{fill:url(#SVGID_15_);}
	.st15{fill:url(#SVGID_16_);}
	.st16{fill:url(#SVGID_17_);}
	.st17{fill:url(#SVGID_18_);}
	.st18{fill:url(#SVGID_19_);}
	.st19{fill:url(#SVGID_20_);}
	.st20{fill:url(#SVGID_21_);}
	.st21{fill:url(#SVGID_22_);}
	.st22{fill:url(#SVGID_23_);}
	.st23{fill:url(#SVGID_24_);}
	.st24{fill:url(#SVGID_25_);}
</style>
<g>
	<g>
		<linearGradient id="SVGID_1_" gradientUnits="userSpaceOnUse" x1="860.9902" y1="0" x2="860.9902" y2="1541.5762">
			<stop  offset="0" style="stop-color:#0A84FF"/>
			<stop  offset="0.9987" style="stop-color:#D834FF"/>
		</linearGradient>
		<path class="st0" d="M1206.6,1541.6H515.4c-26.7,0-56.8-8.9-84.9-25.2c-28.1-16.2-50.9-37.9-64.2-61L20.7,856.9
			C7.3,833.8,0,803.2,0,770.8c0-32.4,7.3-63,20.7-86.1L366.3,86.1c13.3-23.1,36.2-44.8,64.2-61C458.6,8.9,488.7,0,515.4,0h691.1
			c26.7,0,56.8,8.9,84.9,25.1c28.1,16.2,50.9,37.9,64.2,61l345.6,598.5c13.3,23.1,20.7,53.7,20.7,86.1c0,32.4-7.3,63-20.7,86.1
			l-345.6,598.5c-13.3,23.1-36.2,44.8-64.2,61C1263.4,1532.6,1233.2,1541.6,1206.6,1541.6z M515.4,23.2
			c-46.6,0-105.8,34.1-129.1,74.5L40.8,696.3c-23.3,40.4-23.3,108.7,0,149.1l345.6,598.5c23.3,40.4,82.4,74.5,129.1,74.5h691.1
			c46.7,0,105.8-34.1,129.1-74.5l345.6-598.5c23.3-40.4,23.3-108.7,0-149.1L1335.6,97.7c-23.3-40.4-82.4-74.5-129.1-74.5H515.4z"/>
	</g>
	<g>
		
			<linearGradient id="SVGID_2_" gradientUnits="userSpaceOnUse" x1="712.3349" y1="-1477.0966" x2="278.2694" y2="143.0543" gradientTransform="matrix(0.8693 -0.2329 0.2329 0.8693 585.7733 1465.9849)">
			<stop  offset="0" style="stop-color:#0A84FF"/>
			<stop  offset="0.9987" style="stop-color:#D834FF"/>
		</linearGradient>
		<path class="st1" d="M1341,1360.4l-600.8,161c-23.2,6.2-51.5,5.5-79.7-2.1c-28.2-7.6-53.1-21.1-70.1-38l-439.8-439.8
			c-17-17-30.5-41.9-38-70.1c-7.6-28.2-8.3-56.5-2.1-79.7l161-600.8c6.2-23.2,21-47.3,41.6-68c20.6-20.6,44.8-35.4,68-41.6
			l600.8-161c23.2-6.2,51.5-5.5,79.7,2.1c28.2,7.6,53.1,21.1,70.1,38l439.8,439.8c17,17,30.5,41.9,38,70.1
			c7.6,28.2,8.3,56.5,2.1,79.7l-161,600.8c-6.2,23.2-21,47.3-41.6,68C1388.3,1339.4,1364.1,1354.1,1341,1360.4z M386.4,201.4
			c-40.6,10.9-84,54.3-94.9,94.9l-161,600.8c-10.9,40.6,5,99.9,34.7,129.6l439.8,439.8c29.7,29.7,89,45.6,129.6,34.7l600.8-161
			c40.6-10.9,84-54.3,94.9-94.9l161-600.8c10.9-40.6-5-99.9-34.7-129.6L1116.8,75.1c-29.7-29.7-89-45.6-129.6-34.7L386.4,201.4z"/>
	</g>
	<g>
		
			<linearGradient id="SVGID_3_" gradientUnits="userSpaceOnUse" x1="945.5284" y1="-3061.4636" x2="84.5734" y2="-1570.2045" gradientTransform="matrix(0.7015 -0.405 0.405 0.7015 1437.5947 2603.9412)">
			<stop  offset="0" style="stop-color:#0A84FF"/>
			<stop  offset="0.9987" style="stop-color:#D834FF"/>
		</linearGradient>
		<path class="st2" d="M1415.6,1171.5l-484.8,279.9c-18.7,10.8-43.5,16.8-69.8,16.8c-26.3,0-51-6-69.8-16.8l-484.8-279.9
			c-18.7-10.8-36.3-29.3-49.4-52c-13.1-22.8-20.4-47.2-20.4-68.8l0-559.8c0-21.6,7.2-46,20.4-68.8c13.1-22.8,30.7-41.2,49.4-52
			L791.2,90.1c18.7-10.8,43.5-16.8,69.8-16.8c26.3,0,51,6,69.8,16.8L1415.6,370c18.7,10.8,36.3,29.3,49.4,52
			c13.1,22.8,20.4,47.2,20.4,68.8l0,559.8c0,21.6-7.2,46-20.4,68.8C1451.8,1142.2,1434.3,1160.7,1415.6,1171.5z M315.8,386.3
			c-32.7,18.9-60.4,66.8-60.4,104.6l0,559.8c0,37.8,27.6,85.7,60.4,104.6l484.8,279.9c32.7,18.9,88,18.9,120.7,0l484.8-279.9
			c32.7-18.9,60.4-66.8,60.4-104.6V490.9c0-37.8-27.6-85.7-60.4-104.6L921.4,106.4c-32.7-18.9-88-18.9-120.7,0L315.8,386.3z"/>
	</g>
	<g>
		
			<linearGradient id="SVGID_4_" gradientUnits="userSpaceOnUse" x1="1603.7991" y1="-4672.1411" x2="417.8753" y2="-3486.2173" gradientTransform="matrix(0.5155 -0.5155 0.5155 0.5155 2442.7212 3394.6917)">
			<stop  offset="0" style="stop-color:#0A84FF"/>
			<stop  offset="0.9987" style="stop-color:#D834FF"/>
		</linearGradient>
		<path class="st3" d="M1436.4,990l-356.3,356.3c-13.8,13.8-33.9,24.7-56.7,30.8c-22.8,6.1-45.8,6.7-64.5,1.7l-486.7-130.4
			c-18.8-5-38.3-17-55.1-33.7c-16.7-16.7-28.7-36.3-33.7-55.1L253,672.9c-5-18.8-4.4-41.7,1.7-64.5c6.1-22.8,17.1-43,30.8-56.7
			l356.3-356.3c13.7-13.8,33.9-24.7,56.7-30.8c22.8-6.1,45.8-6.7,64.5-1.7l486.7,130.4c18.8,5,38.3,17,55.1,33.7
			c16.7,16.7,28.7,36.3,33.7,55.1L1469,868.7c5,18.8,4.4,41.7-1.7,64.5C1461.1,956.1,1450.2,976.2,1436.4,990z M297.5,563.5
			c-24,24-36.9,72.1-28.1,105l130.4,486.7c8.8,32.8,44,68,76.8,76.8l486.7,130.4c32.8,8.8,80.9-4.1,105-28.1L1424.5,978
			c24-24,36.9-72.1,28.1-105l-130.4-486.7c-8.8-32.8-44-68-76.8-76.8L758.7,179.2c-32.8-8.8-80.9,4.1-105,28.1L297.5,563.5z"/>
	</g>
	<g>
		
			<linearGradient id="SVGID_5_" gradientUnits="userSpaceOnUse" x1="2718.4087" y1="-6213.6924" x2="1383.2633" y2="-5442.9648" gradientTransform="matrix(0.328 -0.5682 0.5682 0.328 3499.9736 3847.7646)">
			<stop  offset="0" style="stop-color:#0A84FF"/>
			<stop  offset="0.9987" style="stop-color:#D834FF"/>
		</linearGradient>
		<path class="st4" d="M1412.3,827.3L1185.6,1220c-8.8,15.2-23.7,29.4-42.2,40c-18.4,10.6-38.2,16.5-55.7,16.5l-453.5,0
			c-17.5,0-37.3-5.9-55.7-16.5c-18.4-10.6-33.4-24.8-42.1-40L309.7,827.3c-8.8-15.2-13.6-35.2-13.6-56.5c0-21.3,4.8-41.3,13.6-56.5
			l226.7-392.7c8.8-15.2,23.7-29.4,42.1-40c18.4-10.6,38.2-16.5,55.7-16.5l453.5,0c17.5,0,37.3,5.9,55.7,16.5
			c18.4,10.6,33.4,24.8,42.2,40l226.7,392.7c8.8,15.2,13.6,35.2,13.6,56.5C1425.9,792.1,1421.1,812.1,1412.3,827.3z M322.8,721.9
			c-15.3,26.5-15.3,71.3,0,97.8l226.7,392.7c15.3,26.5,54.1,48.9,84.7,48.9l453.5,0c30.6,0,69.4-22.4,84.7-48.9l226.7-392.7
			c15.3-26.5,15.3-71.3,0-97.8l-226.7-392.7c-15.3-26.5-54.1-48.9-84.7-48.9l-453.5,0c-30.6,0-69.4,22.4-84.7,48.9L322.8,721.9z"/>
	</g>
	<g>
		
			<linearGradient id="SVGID_6_" gradientUnits="userSpaceOnUse" x1="4479.0376" y1="-7624.5376" x2="2859.0093" y2="-7190.561" gradientTransform="matrix(0.1528 -0.5704 0.5704 0.1528 4525.6299 3995.4729)">
			<stop  offset="0" style="stop-color:#0A84FF"/>
			<stop  offset="0.9987" style="stop-color:#D834FF"/>
		</linearGradient>
		<path class="st5" d="M1353.4,691.5l-105.6,394.2c-4.1,15.2-13.8,31.1-27.3,44.6c-13.5,13.5-29.4,23.2-44.6,27.3l-394.2,105.6
			c-15.2,4.1-33.8,3.6-52.3-1.4c-18.5-5-34.8-13.8-46-25L394.9,948.3c-11.1-11.1-20-27.5-25-46c-5-18.5-5.4-37.1-1.4-52.3
			l105.6-394.2c4.1-15.2,13.8-31.1,27.3-44.6c13.5-13.5,29.4-23.2,44.6-27.3l394.2-105.6c15.2-4.1,33.8-3.6,52.3,1.4
			c18.5,5,34.8,13.8,46,25l288.6,288.6c11.1,11.1,20,27.5,25,46C1357,657.7,1357.5,676.3,1353.4,691.5z M381.8,853.6
			c-7.1,26.6,3.3,65.5,22.8,85l288.6,288.6c19.5,19.5,58.4,29.9,85,22.8l394.2-105.6c26.6-7.1,55.1-35.6,62.2-62.2l105.6-394.2
			c7.1-26.6-3.3-65.5-22.8-85l-288.6-288.6c-19.5-19.5-58.4-29.9-85-22.8L549.6,397.2c-26.6,7.1-55.1,35.6-62.2,62.2L381.8,853.6z"
			/>
	</g>
	<g>
		
			<linearGradient id="SVGID_7_" gradientUnits="userSpaceOnUse" x1="6723.0645" y1="-8637.6953" x2="5000.9517" y2="-8637.6953" gradientTransform="matrix(0 -0.5314 0.5314 0 5451.0615 3885.8591)">
			<stop  offset="0" style="stop-color:#0A84FF"/>
			<stop  offset="0.9987" style="stop-color:#D834FF"/>
		</linearGradient>
		<path class="st6" d="M1270.6,587.1v367.3c0,14.2-4.7,30.2-13.4,45.1c-8.6,14.9-20.1,27.1-32.4,34.1l-318.1,183.6
			c-12.3,7.1-28.5,11-45.8,11c-17.2,0-33.5-3.9-45.8-11l-318.1-183.6c-12.3-7.1-23.8-19.2-32.4-34.1c-8.6-14.9-13.4-31-13.4-45.1
			V587.1c0-14.2,4.7-30.2,13.4-45.1c8.6-14.9,20.1-27.1,32.4-34.1l318.1-183.6c12.3-7.1,28.5-11,45.8-11c17.2,0,33.5,3.9,45.8,11
			l318.1,183.6c12.3,7.1,23.8,19.2,32.4,34.1C1265.9,556.9,1270.6,573,1270.6,587.1z M463.7,954.4c0,24.8,18.1,56.2,39.6,68.6
			l318.1,183.6c21.5,12.4,57.7,12.4,79.2,0l318.1-183.6c21.5-12.4,39.6-43.8,39.6-68.6l0-367.3c0-24.8-18.1-56.2-39.6-68.6
			L900.6,334.9c-21.5-12.4-57.7-12.4-79.2,0L503.3,518.5c-21.5,12.4-39.6,43.8-39.6,68.6V954.4z"/>
	</g>
	<g>
		
			<linearGradient id="SVGID_8_" gradientUnits="userSpaceOnUse" x1="9376.5869" y1="-9109.4658" x2="7756.542" y2="-9543.582" gradientTransform="matrix(-0.1238 -0.462 0.462 -0.1238 6230.3857 3573.9172)">
			<stop  offset="0" style="stop-color:#0A84FF"/>
			<stop  offset="0.9987" style="stop-color:#D834FF"/>
		</linearGradient>
		<path class="st7" d="M1174.3,515.7l85.6,319.3c3.3,12.3,2.9,27.4-1.1,42.3c-4,15-11.2,28.2-20.2,37.2l-233.7,233.7
			c-9,9-22.2,16.2-37.2,20.2c-15,4-30,4.4-42.3,1.1l-319.3-85.6c-12.3-3.3-25.2-11.2-36.1-22.1s-18.8-23.8-22.1-36.1l-85.6-319.3
			c-3.3-12.3-2.9-27.4,1.1-42.3c4-15,11.2-28.2,20.2-37.2l233.7-233.7c9-9,22.2-16.2,37.2-20.2c15-4,30-4.4,42.3-1.1l319.3,85.6
			c12.3,3.3,25.2,11.2,36.1,22.1C1163.2,490.6,1171,503.4,1174.3,515.7z M558.4,1023c5.8,21.6,28.9,44.6,50.4,50.4l319.3,85.6
			c21.6,5.8,53.1-2.7,68.9-18.5l233.7-233.7c15.8-15.8,24.2-47.3,18.5-68.9l-85.6-319.3c-5.8-21.6-28.9-44.6-50.4-50.4l-319.3-85.6
			c-21.6-5.8-53.1,2.7-68.9,18.5L491.3,634.8c-15.8,15.8-24.2,47.3-18.5,68.9L558.4,1023z"/>
	</g>
	<g>
		
			<linearGradient id="SVGID_9_" gradientUnits="userSpaceOnUse" x1="12336.6406" y1="-8904.4385" x2="11001.5" y2="-9675.1523" gradientTransform="matrix(-0.2152 -0.3728 0.3728 -0.2152 6835.4111 3121.8533)">
			<stop  offset="0" style="stop-color:#0A84FF"/>
			<stop  offset="0.9987" style="stop-color:#D834FF"/>
		</linearGradient>
		<path class="st8" d="M1074,476.1l148.8,257.7c5.7,9.9,8.9,23.1,8.9,37.1c0,14-3.2,27.1-8.9,37.1L1074,1065.5
			c-5.7,9.9-15.6,19.3-27.7,26.2c-12.1,7-25.1,10.8-36.6,10.8H712.2c-11.5,0-24.5-3.8-36.6-10.8c-12.1-7-21.9-16.3-27.7-26.2
			L499.3,807.9c-5.7-9.9-8.9-23.1-8.9-37.1c0-14,3.2-27.1,8.9-37.1L648,476.1c5.7-9.9,15.6-19.3,27.7-26.2
			c12.1-7,25.1-10.8,36.6-10.8h297.5c11.5,0,24.5,3.8,36.6,10.8C1058.4,456.8,1068.2,466.1,1074,476.1z M656.7,1060.5
			c10,17.4,35.5,32.1,55.6,32.1l297.5,0c20.1,0,45.5-14.7,55.6-32.1l148.8-257.7c10-17.4,10-46.8,0-64.2l-148.8-257.7
			c-10-17.4-35.5-32.1-55.6-32.1H712.2c-20.1,0-45.5,14.7-55.6,32.1L507.9,738.7c-10,17.4-10,46.8,0,64.2L656.7,1060.5z"/>
	</g>
	<g>
		
			<linearGradient id="SVGID_10_" gradientUnits="userSpaceOnUse" x1="15583.7969" y1="-7762.1313" x2="14397.623" y2="-8948.3047" gradientTransform="matrix(-0.2739 -0.2739 0.2739 -0.2739 7255.4404 2588.2493)">
			<stop  offset="0" style="stop-color:#0A84FF"/>
			<stop  offset="0.9987" style="stop-color:#D834FF"/>
		</linearGradient>
		<path class="st9" d="M977.5,465l189.3,189.3c7.3,7.3,13.1,18,16.4,30.2c3.3,12.1,3.6,24.3,0.9,34.3l-69.3,258.6
			c-2.7,10-9,20.4-17.9,29.3c-8.9,8.9-19.3,15.3-29.3,17.9L809,1093.9c-10,2.7-22.2,2.4-34.3-0.9c-12.1-3.3-22.8-9.1-30.2-16.4
			L555.2,887.3c-7.3-7.3-13.1-18-16.4-30.2c-3.3-12.1-3.6-24.3-0.9-34.3l69.3-258.6c2.7-10,9-20.4,17.9-29.3
			c8.9-8.9,19.3-15.3,29.3-17.9L913,447.7c10-2.7,22.2-2.4,34.3,0.9C959.5,451.8,970.2,457.7,977.5,465z M750.9,1070.3
			c12.8,12.8,38.3,19.6,55.8,14.9l258.6-69.3c17.5-4.7,36.2-23.4,40.8-40.8l69.3-258.6c4.7-17.5-2.2-43-14.9-55.8L971.1,471.3
			c-12.8-12.8-38.3-19.6-55.8-14.9l-258.6,69.3c-17.5,4.7-36.2,23.4-40.8,40.8l-69.3,258.6c-4.7,17.5,2.2,43,14.9,55.8L750.9,1070.3
			z"/>
	</g>
	<g>
		
			<linearGradient id="SVGID_11_" gradientUnits="userSpaceOnUse" x1="18709.0742" y1="-5649.7036" x2="17848.334" y2="-7141.061" gradientTransform="matrix(-0.302 -0.1743 0.1743 -0.302 7495.8755 2025.3611)">
			<stop  offset="0" style="stop-color:#0A84FF"/>
			<stop  offset="0.9987" style="stop-color:#D834FF"/>
		</linearGradient>
		<path class="st10" d="M891,477.8l208.7,120.5c8.1,4.7,15.6,12.6,21.3,22.4c5.7,9.8,8.8,20.3,8.8,29.6l0,241
			c0,9.3-3.1,19.8-8.8,29.6c-5.7,9.8-13.2,17.8-21.3,22.4L891,1063.8c-8.1,4.7-18.7,7.2-30,7.2c-11.3,0-22-2.6-30-7.2L622.3,943.3
			c-8.1-4.7-15.6-12.6-21.3-22.4c-5.7-9.8-8.8-20.3-8.8-29.6l0-241c0-9.3,3.1-19.8,8.8-29.6c5.7-9.8,13.2-17.8,21.3-22.4L831,477.8
			c8.1-4.6,18.7-7.2,30-7.2C872.3,470.6,883,473.1,891,477.8z M835,1056.8c14.1,8.1,37.9,8.1,52,0l208.7-120.5
			c14.1-8.1,26-28.7,26-45l0-241c0-16.3-11.9-36.9-26-45L887,484.8c-14.1-8.1-37.9-8.1-52,0L626.3,605.3c-14.1,8.1-26,28.7-26,45
			v241c0,16.3,11.9,36.9,26,45L835,1056.8z"/>
	</g>
	<g>
		
			<linearGradient id="SVGID_12_" gradientUnits="userSpaceOnUse" x1="21470.1367" y1="-2541.291" x2="21036.0898" y2="-4161.4834" gradientTransform="matrix(-0.3031 -8.120000e-02 8.120000e-02 -0.3031 7574.9438 1480.736)">
			<stop  offset="0" style="stop-color:#0A84FF"/>
			<stop  offset="0.9987" style="stop-color:#D834FF"/>
		</linearGradient>
		<path class="st11" d="M818.8,509.1l209.5,56.1c8.1,2.2,16.5,7.3,23.7,14.5c7.2,7.2,12.4,15.6,14.5,23.7l56.1,209.5
			c2.2,8.1,1.9,18-0.7,27.8c-2.6,9.8-7.3,18.5-13.3,24.4l-153.4,153.4c-5.9,5.9-14.6,10.6-24.4,13.3c-9.8,2.6-19.7,2.9-27.8,0.7
			l-209.5-56.1c-8.1-2.2-16.5-7.3-23.7-14.5c-7.2-7.2-12.4-15.6-14.5-23.7l-56.1-209.5c-2.2-8.1-1.9-18,0.7-27.8
			c2.6-9.8,7.3-18.5,13.3-24.4l153.4-153.4c5.9-5.9,14.6-10.6,24.4-13.3C800.9,507.2,810.8,506.9,818.8,509.1z M905,1025.5
			c14.1,3.8,34.8-1.8,45.2-12.1L1103.6,860c10.4-10.4,15.9-31,12.1-45.2l-56.1-209.5c-3.8-14.1-18.9-29.3-33.1-33.1L817,516.1
			c-14.1-3.8-34.8,1.8-45.2,12.1L618.4,681.6c-10.4,10.4-15.9,31-12.1,45.2l56.1,209.5c3.8,14.1,18.9,29.3,33.1,33.1L905,1025.5z"/>
	</g>
	<g>
		
			<linearGradient id="SVGID_13_" gradientUnits="userSpaceOnUse" x1="23567.7676" y1="1542.507" x2="23567.7676" y2="0.764" gradientTransform="matrix(-0.2824 0 0 -0.2824 7516.5288 988.6992)">
			<stop  offset="0" style="stop-color:#0A84FF"/>
			<stop  offset="0.9987" style="stop-color:#D834FF"/>
		</linearGradient>
		<path class="st12" d="M763.4,553.1l195.2,0c7.5,0,16.1,2.5,24,7.1c7.9,4.6,14.4,10.7,18.1,17.2l97.6,169
			c3.8,6.5,5.8,15.2,5.8,24.3c0,9.2-2.1,17.8-5.8,24.3l-97.6,169c-3.8,6.5-10.2,12.6-18.1,17.2c-7.9,4.6-16.5,7.1-24,7.1H763.4
			c-7.5,0-16.1-2.5-24-7.1c-7.9-4.6-14.4-10.7-18.1-17.2l-97.6-169c-3.8-6.5-5.8-15.2-5.8-24.3c0-9.2,2.1-17.8,5.8-24.3l97.6-169
			c3.8-6.5,10.2-12.6,18.1-17.2C747.3,555.6,755.9,553.1,763.4,553.1z M958.6,981.9c13.2,0,29.9-9.6,36.5-21l97.6-169
			c6.6-11.4,6.6-30.7,0-42.1l-97.6-169c-6.6-11.4-23.3-21.1-36.5-21l-195.2,0c-13.2,0-29.9,9.6-36.5,21l-97.6,169
			c-6.6,11.4-6.6,30.7,0,42.1l97.6,169c6.6,11.4,23.3,21.1,36.5,21.1L958.6,981.9z"/>
	</g>
	<g>
		
			<linearGradient id="SVGID_14_" gradientUnits="userSpaceOnUse" x1="24646.0078" y1="6675.3745" x2="25080.252" y2="5055.209" gradientTransform="matrix(-0.2455 6.580000e-02 -6.580000e-02 -0.2455 7350.8262 574.7239)">
			<stop  offset="0" style="stop-color:#0A84FF"/>
			<stop  offset="0.9987" style="stop-color:#D834FF"/>
		</linearGradient>
		<path class="st13" d="M725.4,604.3l169.7-45.5c6.6-1.8,14.5-1.5,22.5,0.6c8,2.1,15,5.9,19.8,10.7l124.2,124.2
			c4.8,4.8,8.6,11.8,10.7,19.8c2.1,8,2.3,16,0.6,22.5l-45.5,169.7c-1.8,6.6-5.9,13.4-11.8,19.2c-5.8,5.8-12.6,10-19.2,11.8
			l-169.7,45.5c-6.5,1.8-14.5,1.5-22.5-0.6c-8-2.1-15-5.9-19.8-10.7L660.3,847.2c-4.8-4.8-8.6-11.8-10.7-19.8
			c-2.1-8-2.3-16-0.6-22.5l45.5-169.7c1.8-6.5,5.9-13.4,11.8-19.2C712.1,610.2,718.9,606,725.4,604.3z M995,931.6
			c11.5-3.1,23.7-15.3,26.8-26.8l45.5-169.7c3.1-11.5-1.4-28.2-9.8-36.6L933.3,574.3c-8.4-8.4-25.1-12.9-36.6-9.8L727,610
			c-11.5,3.1-23.7,15.3-26.8,26.8l-45.5,169.7c-3.1,11.5,1.4,28.2,9.8,36.6l124.2,124.2c8.4,8.4,25.1,12.9,36.6,9.8L995,931.6z"/>
	</g>
	<g>
		
			<linearGradient id="SVGID_15_" gradientUnits="userSpaceOnUse" x1="24357.6699" y1="12448.4785" x2="25218.8418" y2="10957.2344" gradientTransform="matrix(-0.1981 0.1144 -0.1144 -0.1981 7110.3516 253.3484)">
			<stop  offset="0" style="stop-color:#0A84FF"/>
			<stop  offset="0.9987" style="stop-color:#D834FF"/>
		</linearGradient>
		<path class="st14" d="M704.4,657.6l136.9-79.1c5.3-3.1,12.3-4.7,19.7-4.7c7.4,0,14.4,1.7,19.7,4.7l136.9,79.1
			c5.3,3.1,10.2,8.3,13.9,14.7c3.7,6.4,5.8,13.3,5.8,19.4v158.1c0,6.1-2,13-5.8,19.4c-3.7,6.4-8.7,11.6-13.9,14.7L880.7,963
			c-5.3,3.1-12.3,4.7-19.7,4.7c-7.4,0-14.4-1.7-19.7-4.7L704.4,884c-5.3-3.1-10.2-8.3-13.9-14.7c-3.7-6.4-5.8-13.3-5.8-19.4V691.7
			c0-6.1,2-13,5.8-19.4C694.1,665.9,699.1,660.7,704.4,657.6z M1015,879.4c9.2-5.3,17.1-18.9,17.1-29.5l0-158.1
			c0-10.7-7.8-24.2-17-29.5L878,583.1c-9.2-5.3-24.9-5.3-34.1,0L707,662.2c-9.2,5.3-17,18.9-17,29.5v158.1c0,10.7,7.8,24.2,17,29.5
			l136.9,79.1c9.2,5.3,24.9,5.3,34.1,0L1015,879.4z"/>
	</g>
	<g>
		
			<linearGradient id="SVGID_16_" gradientUnits="userSpaceOnUse" x1="22437.2285" y1="18533.3203" x2="23623.0918" y2="17347.457" gradientTransform="matrix(-0.1456 0.1456 -0.1456 -0.1456 6826.3032 29.7192)">
			<stop  offset="0" style="stop-color:#0A84FF"/>
			<stop  offset="0.9987" style="stop-color:#D834FF"/>
		</linearGradient>
		<path class="st15" d="M698.5,708.9l100.6-100.6c3.9-3.9,9.6-7,16-8.7c6.4-1.7,12.9-1.9,18.2-0.5l137.4,36.8
			c5.3,1.4,10.8,4.8,15.5,9.5c4.7,4.7,8.1,10.2,9.5,15.5l36.8,137.4c1.4,5.3,1.3,11.8-0.5,18.2c-1.7,6.5-4.8,12.1-8.7,16
			L922.9,933.3c-3.9,3.9-9.6,7-16,8.7c-6.4,1.7-12.9,1.9-18.2,0.5l-137.5-36.8c-5.3-1.4-10.8-4.8-15.5-9.5
			c-4.7-4.7-8.1-10.2-9.5-15.5l-36.8-137.4c-1.4-5.3-1.3-11.8,0.5-18.2C691.5,718.5,694.6,712.8,698.5,708.9z M1020.1,829.3
			c6.8-6.8,10.4-20.4,7.9-29.6l-36.8-137.4c-2.5-9.3-12.4-19.2-21.7-21.7l-137.5-36.8c-9.3-2.5-22.9,1.2-29.6,7.9L701.8,712.3
			c-6.8,6.8-10.4,20.4-7.9,29.6l36.8,137.4c2.5,9.3,12.4,19.2,21.7,21.7l137.5,36.8c9.3,2.5,22.9-1.2,29.6-7.9L1020.1,829.3z"/>
	</g>
	<g>
		
			<linearGradient id="SVGID_17_" gradientUnits="userSpaceOnUse" x1="18683.9082" y1="24512.0781" x2="20018.5059" y2="23741.2559" gradientTransform="matrix(-9.270000e-02 0.1605 -0.1605 -9.270000e-02 6527.1782 -98.5365)">
			<stop  offset="0" style="stop-color:#0A84FF"/>
			<stop  offset="0.9987" style="stop-color:#D834FF"/>
		</linearGradient>
		<path class="st16" d="M705.3,754.8l64-110.9c2.5-4.3,6.7-8.3,11.9-11.3c5.2-3,10.8-4.7,15.7-4.7H925c4.9,0,10.5,1.7,15.7,4.7
			c5.2,3,9.4,7,11.9,11.3l64,110.9c2.5,4.3,3.8,9.9,3.8,16c0,6-1.4,11.7-3.8,16l-64,110.9c-2.5,4.3-6.7,8.3-11.9,11.3
			c-5.2,3-10.8,4.7-15.7,4.7l-128.1,0c-4.9,0-10.5-1.7-15.7-4.7c-5.2-3-9.4-7-11.9-11.3l-64-110.9c-2.5-4.3-3.8-9.9-3.8-16
			C701.4,764.8,702.8,759.1,705.3,754.8z M1013,784.6c4.3-7.5,4.3-20.1,0-27.6l-64-110.9c-4.3-7.5-15.3-13.8-23.9-13.8l-128.1,0
			c-8.6,0-19.6,6.3-23.9,13.8L709,757c-4.3,7.5-4.3,20.1,0,27.6l64,110.9c4.3,7.5,15.3,13.8,23.9,13.8l128.1,0
			c8.6,0,19.6-6.3,23.9-13.8L1013,784.6z"/>
	</g>
</g>
<g>
	<linearGradient id="SVGID_18_" gradientUnits="userSpaceOnUse" x1="2092.145" y1="389.1865" x2="2092.145" y2="1148.2021">
		<stop  offset="0" style="stop-color:#0A84FF"/>
		<stop  offset="0.1075" style="stop-color:#3075FF"/>
		<stop  offset="0.2716" style="stop-color:#6262FF"/>
		<stop  offset="0.4336" style="stop-color:#8D51FF"/>
		<stop  offset="0.5899" style="stop-color:#AD45FF"/>
		<stop  offset="0.7392" style="stop-color:#C53BFF"/>
		<stop  offset="0.8784" style="stop-color:#D336FF"/>
		<stop  offset="0.9976" style="stop-color:#D834FF"/>
	</linearGradient>
	<path class="st17" d="M2000.6,548.2h-228.9v-159h640.9v159h-229.4v600h-182.7V548.2z"/>
	<linearGradient id="SVGID_19_" gradientUnits="userSpaceOnUse" x1="2777.2681" y1="389.1865" x2="2777.2681" y2="1148.2021">
		<stop  offset="0" style="stop-color:#0A84FF"/>
		<stop  offset="0.1075" style="stop-color:#3075FF"/>
		<stop  offset="0.2716" style="stop-color:#6262FF"/>
		<stop  offset="0.4336" style="stop-color:#8D51FF"/>
		<stop  offset="0.5899" style="stop-color:#AD45FF"/>
		<stop  offset="0.7392" style="stop-color:#C53BFF"/>
		<stop  offset="0.8784" style="stop-color:#D336FF"/>
		<stop  offset="0.9976" style="stop-color:#D834FF"/>
	</linearGradient>
	<path class="st18" d="M3112.2,1148.2h-209.4L2635,755h149.1c75.2,0,114.8-34.5,118.6-103.4c0-70-40.6-105.5-121.8-106.6H2625v603.1
		h-182.7v-759h352.7c98.7,0,174.6,26.6,227.8,79.8c43,43.8,64.6,101,64.6,171.6c0,123.9-53.4,202.8-160.1,236.7L3112.2,1148.2z"/>
	<linearGradient id="SVGID_20_" gradientUnits="userSpaceOnUse" x1="3549.2524" y1="390.2334" x2="3549.2524" y2="1152.3896">
		<stop  offset="0" style="stop-color:#0A84FF"/>
		<stop  offset="0.1075" style="stop-color:#3075FF"/>
		<stop  offset="0.2716" style="stop-color:#6262FF"/>
		<stop  offset="0.4336" style="stop-color:#8D51FF"/>
		<stop  offset="0.5899" style="stop-color:#AD45FF"/>
		<stop  offset="0.7392" style="stop-color:#C53BFF"/>
		<stop  offset="0.8784" style="stop-color:#D336FF"/>
		<stop  offset="0.9976" style="stop-color:#D834FF"/>
	</linearGradient>
	<path class="st19" d="M3956.6,1152.4h-190l-219.4-539.6l-158,388.4h166.4v151.2h-413.6l323.3-762.2h166.9L3956.6,1152.4z"/>
	<linearGradient id="SVGID_21_" gradientUnits="userSpaceOnUse" x1="4077.6353" y1="389.1865" x2="4077.6353" y2="1148.2021">
		<stop  offset="0" style="stop-color:#0A84FF"/>
		<stop  offset="0.1075" style="stop-color:#3075FF"/>
		<stop  offset="0.2716" style="stop-color:#6262FF"/>
		<stop  offset="0.4336" style="stop-color:#8D51FF"/>
		<stop  offset="0.5899" style="stop-color:#AD45FF"/>
		<stop  offset="0.7392" style="stop-color:#C53BFF"/>
		<stop  offset="0.8784" style="stop-color:#D336FF"/>
		<stop  offset="0.9976" style="stop-color:#D834FF"/>
	</linearGradient>
	<path class="st20" d="M3986.3,389.2H4169v759h-182.7V389.2z"/>
</g>
</svg>
